<svg width="356" height="372" viewBox="0 0 356 372" fill="none" xmlns="http://www.w3.org/2000/svg">
<g style="mix-blend-mode:multiply" opacity="0.277134" filter="url(#filter0_f)">
<rect x="53.1238" y="69.1709" width="249.286" height="249.286" rx="69.3847" fill="black"/>
</g>
<g style="mix-blend-mode:multiply" opacity="0.304478" filter="url(#filter1_f)">
<rect x="53.1239" y="33.0239" width="249.286" height="249.286" rx="69.3847" fill="black"/>
</g>
<mask id="mask0" mask-type="alpha" maskUnits="userSpaceOnUse" x="53" y="23" width="250" height="250">
<rect x="53.1241" y="23.4688" width="249.286" height="249.286" rx="69.3847" fill="white"/>
</mask>
<g mask="url(#mask0)">
<g filter="url(#filter2_i)">
<rect x="53.1241" y="23.4688" width="249.286" height="249.286" rx="69.3847" fill="url(#paint0_linear)"/>
<rect x="53.1241" y="23.4688" width="249.286" height="249.286" rx="69.3847" fill="url(#paint1_linear)" fill-opacity="0.6" style="mix-blend-mode:multiply"/>
</g>
<rect x="53.092" y="23.5854" width="249.286" height="249.286" rx="69.3847" fill="url(#paint2_linear)" fill-opacity="0.9"/>
<g style="mix-blend-mode:screen" filter="url(#filter3_f)">
<path fill-rule="evenodd" clip-rule="evenodd" d="M122.508 19.3135C84.1884 19.3135 53.1238 50.378 53.1238 88.6981V101.091C53.1627 62.8037 84.2123 31.778 122.508 31.778H233.025C271.345 31.778 302.41 62.8426 302.41 101.163V199.281C302.41 199.259 302.41 199.237 302.41 199.215V88.6981C302.41 50.378 271.345 19.3135 233.025 19.3135H122.508Z" fill="white"/>
</g>
<g filter="url(#filter4_f)">
<rect x="62.6797" y="33.0239" width="230.174" height="230.174" rx="62.3215" fill="url(#paint3_linear)"/>
</g>
</g>
<path d="M205.357 155.758L208.603 134.428H187.968V120.517C187.968 114.488 190.751 108.924 200.025 108.924H209.53V90.6077C209.53 90.6077 200.952 88.9848 192.837 88.9848C175.912 88.9848 164.783 99.4181 164.783 117.966V134.428H145.771V155.758H164.783V207.692H187.968V155.758H205.357Z" fill="url(#paint4_linear)"/>
<defs>
<filter id="filter0_f" x="0.0427589" y="16.0899" width="355.448" height="355.448" filterUnits="userSpaceOnUse" color-interpolation-filters="sRGB">
<feFlood flood-opacity="0" result="BackgroundImageFix"/>
<feBlend mode="normal" in="SourceGraphic" in2="BackgroundImageFix" result="shape"/>
<feGaussianBlur stdDeviation="26.5405" result="effect1_foregroundBlur"/>
</filter>
<filter id="filter1_f" x="20.3718" y="0.271809" width="314.79" height="314.79" filterUnits="userSpaceOnUse" color-interpolation-filters="sRGB">
<feFlood flood-opacity="0" result="BackgroundImageFix"/>
<feBlend mode="normal" in="SourceGraphic" in2="BackgroundImageFix" result="shape"/>
<feGaussianBlur stdDeviation="16.3761" result="effect1_foregroundBlur"/>
</filter>
<filter id="filter2_i" x="53.1241" y="17.2366" width="249.286" height="255.518" filterUnits="userSpaceOnUse" color-interpolation-filters="sRGB">
<feFlood flood-opacity="0" result="BackgroundImageFix"/>
<feBlend mode="normal" in="SourceGraphic" in2="BackgroundImageFix" result="shape"/>
<feColorMatrix in="SourceAlpha" type="matrix" values="0 0 0 0 0 0 0 0 0 0 0 0 0 0 0 0 0 0 127 0" result="hardAlpha"/>
<feOffset dy="-7.41923"/>
<feGaussianBlur stdDeviation="3.11608"/>
<feComposite in2="hardAlpha" operator="arithmetic" k2="-1" k3="1"/>
<feColorMatrix type="matrix" values="0 0 0 0 0 0 0 0 0 0 0 0 0 0 0 0 0 0 0.0920291 0"/>
<feBlend mode="normal" in2="shape" result="effect1_innerShadow"/>
</filter>
<filter id="filter3_f" x="31.6655" y="-2.14481" width="292.203" height="222.884" filterUnits="userSpaceOnUse" color-interpolation-filters="sRGB">
<feFlood flood-opacity="0" result="BackgroundImageFix"/>
<feBlend mode="normal" in="SourceGraphic" in2="BackgroundImageFix" result="shape"/>
<feGaussianBlur stdDeviation="10.7291" result="effect1_foregroundBlur"/>
</filter>
<filter id="filter4_f" x="49.9128" y="20.257" width="255.708" height="255.708" filterUnits="userSpaceOnUse" color-interpolation-filters="sRGB">
<feFlood flood-opacity="0" result="BackgroundImageFix"/>
<feBlend mode="normal" in="SourceGraphic" in2="BackgroundImageFix" result="shape"/>
<feGaussianBlur stdDeviation="6.38347" result="effect1_foregroundBlur"/>
</filter>
<linearGradient id="paint0_linear" x1="53.1225" y1="23.4688" x2="53.1225" y2="272.758" gradientUnits="userSpaceOnUse">
<stop stop-color="#F1F1F1"/>
<stop offset="1" stop-color="#C3C3C3"/>
</linearGradient>
<linearGradient id="paint1_linear" x1="68.4607" y1="54.142" x2="68.4607" y2="272.755" gradientUnits="userSpaceOnUse">
<stop stop-opacity="0.01"/>
<stop offset="1" stop-opacity="0.5"/>
</linearGradient>
<linearGradient id="paint2_linear" x1="88.8539" y1="23.5854" x2="88.8539" y2="201.348" gradientUnits="userSpaceOnUse">
<stop stop-color="white" stop-opacity="0.463778"/>
<stop offset="1" stop-color="white" stop-opacity="0.01"/>
</linearGradient>
<linearGradient id="paint3_linear" x1="62.6783" y1="33.0239" x2="62.6783" y2="263.201" gradientUnits="userSpaceOnUse">
<stop stop-color="#E3E3E3"/>
<stop offset="1" stop-color="#DEDEDE"/>
</linearGradient>
<linearGradient id="paint4_linear" x1="140.67" y1="79.854" x2="140.67" y2="216.37" gradientUnits="userSpaceOnUse">
<stop stop-color="#00B2FF"/>
<stop offset="1" stop-color="#006AFF"/>
</linearGradient>
</defs>
</svg>
