<svg width="789" height="771" viewBox="0 0 789 771" fill="none" xmlns="http://www.w3.org/2000/svg">
<g filter="url(#filter0_dd)">
<path d="M25 45C25 33.9543 33.9543 25 45 25H743.795C754.841 25 763.795 33.9543 763.795 45V725.885C763.795 736.931 754.841 745.885 743.795 745.885H45C33.9543 745.885 25 736.931 25 725.885V45Z" fill="#303234"/>
</g>
<mask id="path-2-outside-1" maskUnits="userSpaceOnUse" x="290.728" y="526.454" width="227" height="87" fill="black">
<rect fill="white" x="290.728" y="526.454" width="227" height="87"/>
<path fill-rule="evenodd" clip-rule="evenodd" d="M342.679 532.454C342.679 529.693 344.918 527.454 347.679 527.454H358.06C360.821 527.454 363.06 529.693 363.06 532.454V606.972C363.06 609.733 360.821 611.972 358.06 611.972H347.679C344.918 611.972 342.679 609.733 342.679 606.972V532.454ZM398.631 527.454C395.869 527.454 393.631 529.693 393.631 532.454V606.972C393.631 609.733 395.869 611.972 398.631 611.972H409.011C411.773 611.972 414.011 609.733 414.011 606.972V532.454C414.011 529.693 411.773 527.454 409.011 527.454H398.631ZM444.582 532.454C444.582 529.693 446.821 527.454 449.582 527.454H459.963C462.724 527.454 464.963 529.693 464.963 532.454V606.972C464.963 609.733 462.724 611.972 459.963 611.972H449.582C446.821 611.972 444.582 609.733 444.582 606.972V532.454ZM495.533 532.454C495.533 529.693 497.772 527.454 500.533 527.454H510.914C513.675 527.454 515.914 529.693 515.914 532.454V606.972C515.914 609.733 513.675 611.972 510.914 611.972H500.533C497.772 611.972 495.533 609.733 495.533 606.972V532.454ZM296.728 527.454C293.966 527.454 291.728 529.693 291.728 532.454V606.972C291.728 609.733 293.966 611.972 296.728 611.972H307.108C309.87 611.972 312.108 609.733 312.108 606.972V532.454C312.108 529.693 309.87 527.454 307.108 527.454H296.728Z"/>
</mask>
<g filter="url(#filter1_i)">
<path fill-rule="evenodd" clip-rule="evenodd" d="M342.679 532.454C342.679 529.693 344.918 527.454 347.679 527.454H358.06C360.821 527.454 363.06 529.693 363.06 532.454V606.972C363.06 609.733 360.821 611.972 358.06 611.972H347.679C344.918 611.972 342.679 609.733 342.679 606.972V532.454ZM398.631 527.454C395.869 527.454 393.631 529.693 393.631 532.454V606.972C393.631 609.733 395.869 611.972 398.631 611.972H409.011C411.773 611.972 414.011 609.733 414.011 606.972V532.454C414.011 529.693 411.773 527.454 409.011 527.454H398.631ZM444.582 532.454C444.582 529.693 446.821 527.454 449.582 527.454H459.963C462.724 527.454 464.963 529.693 464.963 532.454V606.972C464.963 609.733 462.724 611.972 459.963 611.972H449.582C446.821 611.972 444.582 609.733 444.582 606.972V532.454ZM495.533 532.454C495.533 529.693 497.772 527.454 500.533 527.454H510.914C513.675 527.454 515.914 529.693 515.914 532.454V606.972C515.914 609.733 513.675 611.972 510.914 611.972H500.533C497.772 611.972 495.533 609.733 495.533 606.972V532.454ZM296.728 527.454C293.966 527.454 291.728 529.693 291.728 532.454V606.972C291.728 609.733 293.966 611.972 296.728 611.972H307.108C309.87 611.972 312.108 609.733 312.108 606.972V532.454C312.108 529.693 309.87 527.454 307.108 527.454H296.728Z" fill="url(#paint0_linear)"/>
</g>
<path d="M347.679 526.454C344.366 526.454 341.679 529.14 341.679 532.454H343.679C343.679 530.245 345.47 528.454 347.679 528.454V526.454ZM358.06 526.454H347.679V528.454H358.06V526.454ZM364.06 532.454C364.06 529.14 361.374 526.454 358.06 526.454V528.454C360.269 528.454 362.06 530.245 362.06 532.454H364.06ZM364.06 606.972V532.454H362.06V606.972H364.06ZM358.06 612.972C361.374 612.972 364.06 610.285 364.06 606.972H362.06C362.06 609.181 360.269 610.972 358.06 610.972V612.972ZM347.679 612.972H358.06V610.972H347.679V612.972ZM341.679 606.972C341.679 610.285 344.366 612.972 347.679 612.972V610.972C345.47 610.972 343.679 609.181 343.679 606.972H341.679ZM341.679 532.454V606.972H343.679V532.454H341.679ZM394.631 532.454C394.631 530.245 396.422 528.454 398.631 528.454V526.454C395.317 526.454 392.631 529.14 392.631 532.454H394.631ZM394.631 606.972V532.454H392.631V606.972H394.631ZM398.631 610.972C396.422 610.972 394.631 609.181 394.631 606.972H392.631C392.631 610.285 395.317 612.972 398.631 612.972V610.972ZM409.011 610.972H398.631V612.972H409.011V610.972ZM413.011 606.972C413.011 609.181 411.22 610.972 409.011 610.972V612.972C412.325 612.972 415.011 610.285 415.011 606.972H413.011ZM413.011 532.454V606.972H415.011V532.454H413.011ZM409.011 528.454C411.22 528.454 413.011 530.245 413.011 532.454H415.011C415.011 529.14 412.325 526.454 409.011 526.454V528.454ZM398.631 528.454H409.011V526.454H398.631V528.454ZM449.582 526.454C446.268 526.454 443.582 529.14 443.582 532.454H445.582C445.582 530.245 447.373 528.454 449.582 528.454V526.454ZM459.963 526.454H449.582V528.454H459.963V526.454ZM465.963 532.454C465.963 529.14 463.276 526.454 459.963 526.454V528.454C462.172 528.454 463.963 530.245 463.963 532.454H465.963ZM465.963 606.972V532.454H463.963V606.972H465.963ZM459.963 612.972C463.276 612.972 465.963 610.285 465.963 606.972H463.963C463.963 609.181 462.172 610.972 459.963 610.972V612.972ZM449.582 612.972H459.963V610.972H449.582V612.972ZM443.582 606.972C443.582 610.285 446.268 612.972 449.582 612.972V610.972C447.373 610.972 445.582 609.181 445.582 606.972H443.582ZM443.582 532.454V606.972H445.582V532.454H443.582ZM500.533 526.454C497.22 526.454 494.533 529.14 494.533 532.454H496.533C496.533 530.245 498.324 528.454 500.533 528.454V526.454ZM510.914 526.454H500.533V528.454H510.914V526.454ZM516.914 532.454C516.914 529.14 514.228 526.454 510.914 526.454V528.454C513.123 528.454 514.914 530.245 514.914 532.454H516.914ZM516.914 606.972V532.454H514.914V606.972H516.914ZM510.914 612.972C514.228 612.972 516.914 610.285 516.914 606.972H514.914C514.914 609.181 513.123 610.972 510.914 610.972V612.972ZM500.533 612.972H510.914V610.972H500.533V612.972ZM494.533 606.972C494.533 610.285 497.22 612.972 500.533 612.972V610.972C498.324 610.972 496.533 609.181 496.533 606.972H494.533ZM494.533 532.454V606.972H496.533V532.454H494.533ZM292.728 532.454C292.728 530.245 294.519 528.454 296.728 528.454V526.454C293.414 526.454 290.728 529.141 290.728 532.454H292.728ZM292.728 606.972V532.454H290.728V606.972H292.728ZM296.728 610.972C294.519 610.972 292.728 609.181 292.728 606.972H290.728C290.728 610.286 293.414 612.972 296.728 612.972V610.972ZM307.108 610.972H296.728V612.972H307.108V610.972ZM311.108 606.972C311.108 609.181 309.318 610.972 307.108 610.972V612.972C310.422 612.972 313.108 610.286 313.108 606.972H311.108ZM311.108 532.454V606.972H313.108V532.454H311.108ZM307.108 528.454C309.318 528.454 311.108 530.245 311.108 532.454H313.108C313.108 529.141 310.422 526.454 307.108 526.454V528.454ZM296.728 528.454H307.108V526.454H296.728V528.454Z" fill="#303234" mask="url(#path-2-outside-1)"/>
<g filter="url(#filter2_i)">
<ellipse cx="622.752" cy="572.753" rx="76.8645" ry="74.6258" fill="url(#paint1_radial)"/>
</g>
<path d="M622.752 647.879C665.466 647.879 700.117 614.258 700.117 572.753C700.117 531.249 665.466 497.627 622.752 497.627C580.039 497.627 545.388 531.249 545.388 572.753C545.388 614.258 580.039 647.879 622.752 647.879Z" stroke="#272829"/>
<g filter="url(#filter3_i)">
<path fill-rule="evenodd" clip-rule="evenodd" d="M624.991 548.873C627.768 548.873 630.019 551.053 630.019 553.743V567.136H643.844C646.621 567.136 648.871 569.317 648.871 572.007C648.871 574.697 646.621 576.877 643.844 576.877H630.019V590.27C630.019 592.96 627.768 595.141 624.991 595.141C622.215 595.141 619.964 592.96 619.964 590.27V576.877H606.138C603.362 576.877 601.111 574.697 601.111 572.007C601.111 569.317 603.362 567.136 606.138 567.136H619.964V553.743C619.964 551.053 622.215 548.873 624.991 548.873Z" fill="url(#paint2_linear)"/>
</g>
<path d="M630.519 553.743C630.519 550.762 628.029 548.373 624.991 548.373C621.954 548.373 619.464 550.762 619.464 553.743V566.636H606.138C603.101 566.636 600.611 569.026 600.611 572.007C600.611 574.988 603.101 577.377 606.138 577.377H619.464V590.27C619.464 593.251 621.954 595.641 624.991 595.641C628.029 595.641 630.519 593.251 630.519 590.27V577.377H643.844C646.882 577.377 649.371 574.988 649.371 572.007C649.371 569.026 646.882 566.636 643.844 566.636H630.519V553.743Z" stroke="#303234"/>
<g filter="url(#filter4_i)">
<ellipse cx="179.475" cy="572.753" rx="76.8645" ry="74.6258" fill="url(#paint3_radial)"/>
</g>
<path d="M179.475 647.879C222.189 647.879 256.84 614.258 256.84 572.753C256.84 531.249 222.189 497.627 179.475 497.627C136.762 497.627 102.111 531.249 102.111 572.753C102.111 614.258 136.762 647.879 179.475 647.879Z" stroke="#272829"/>
<g filter="url(#filter5_i)">
<path fill-rule="evenodd" clip-rule="evenodd" d="M157.834 572.007C157.834 569.122 160.085 566.783 162.861 566.783H200.567C203.343 566.783 205.594 569.122 205.594 572.007C205.594 574.892 203.343 577.231 200.567 577.231H162.861C160.085 577.231 157.834 574.892 157.834 572.007Z" fill="url(#paint4_linear)"/>
</g>
<path d="M162.861 566.283C159.791 566.283 157.334 568.864 157.334 572.007C157.334 575.15 159.791 577.731 162.861 577.731H200.567C203.638 577.731 206.094 575.15 206.094 572.007C206.094 568.864 203.638 566.283 200.567 566.283H162.861Z" stroke="#303234"/>
<g filter="url(#filter6_i)">
<path d="M287.683 411.372V388.179C287.683 380.846 290.543 373.752 296.264 366.898C301.985 360.043 308.931 353.747 317.104 348.008L341.131 331.031C349.303 325.293 356.25 318.837 361.971 311.663C367.691 304.33 370.552 296.838 370.552 289.187C370.552 280.898 367.61 273.565 361.725 267.189C356.005 260.812 347.914 257.624 337.453 257.624C328.627 257.624 321.435 260.095 315.878 265.037C310.484 269.819 307.787 276.753 307.787 285.839C307.787 287.593 306.97 289.107 305.335 290.382C303.864 291.658 301.821 292.295 299.206 292.295C294.302 292.295 291.851 289.027 291.851 282.492C291.851 271.014 296.264 261.53 305.09 254.037C313.916 246.545 324.867 242.799 337.943 242.799C352 242.799 363.605 247.183 372.758 255.95C382.075 264.718 386.733 275.637 386.733 288.709C386.733 296.679 384.69 304.33 380.604 311.663C376.518 318.996 371.451 325.213 365.403 330.314C359.355 335.415 352.736 340.596 345.544 345.856L325.685 359.725C319.637 363.71 314.57 368.253 310.484 373.354C306.398 378.295 304.355 383.237 304.355 388.179V403.004H382.565C384.2 403.004 385.589 403.721 386.733 405.156C387.877 406.59 388.449 408.264 388.449 410.177C388.449 412.09 387.877 413.843 386.733 415.437C385.589 416.872 384.2 417.589 382.565 417.589H295.283C293.485 417.589 291.769 417.031 290.134 415.916C288.5 414.64 287.683 413.126 287.683 411.372Z" fill="url(#paint5_linear)"/>
<path d="M402.574 379.571C402.574 376.383 403.146 374.231 404.29 373.115C405.434 371.839 407.395 371.202 410.174 371.202C415.731 371.202 418.51 373.434 418.51 377.897C418.51 384.433 421.207 390.49 426.601 396.069C432.158 401.649 440.984 404.438 453.08 404.438C476.616 404.438 488.385 392.483 488.385 368.572V364.029C488.385 353.348 485.279 345.378 479.068 340.117C473.02 334.857 464.521 332.227 453.57 332.227C449.32 332.227 447.195 329.995 447.195 325.532C447.195 320.909 449.239 318.597 453.325 318.597C463.622 318.597 471.304 316.366 476.371 311.902C481.438 307.28 483.972 299.309 483.972 287.991C483.972 277.47 481.602 269.739 476.862 264.797C472.122 259.696 464.603 257.146 454.306 257.146C442.864 257.146 434.773 259.776 430.033 265.037C425.293 270.138 422.923 276.036 422.923 282.731C422.923 287.832 420.308 290.382 415.078 290.382C411.972 290.382 409.765 289.745 408.458 288.469C407.314 287.194 406.742 284.803 406.742 281.296C406.742 277.47 407.477 273.565 408.948 269.58C410.419 265.594 412.789 261.53 416.058 257.385C419.327 253.081 424.313 249.574 431.014 246.864C437.715 244.154 445.643 242.799 454.796 242.799C484.707 242.799 499.663 256.827 499.663 284.883C499.663 295.244 497.783 303.852 494.024 310.707C490.428 317.561 485.606 322.423 479.558 325.293C496.23 331.828 504.566 344.74 504.566 364.029V368.572C504.566 385.947 499.826 398.7 490.346 406.829C481.03 414.959 468.689 419.024 453.325 419.024C437.143 419.024 424.639 414.959 415.813 406.829C406.987 398.7 402.574 389.613 402.574 379.571Z" fill="url(#paint6_linear)"/>
<path d="M536.023 307.359C527.36 298.592 523.029 288.469 523.029 276.992C523.029 265.515 527.279 255.472 535.778 246.864C544.441 238.256 554.657 233.952 566.425 233.952C578.193 233.952 588.409 238.176 597.072 246.625C605.735 255.074 610.066 265.196 610.066 276.992C610.066 288.469 605.653 298.592 596.827 307.359C588.164 316.127 578.03 320.51 566.425 320.51C554.82 320.51 544.686 316.127 536.023 307.359ZM535.043 276.992C535.043 285.281 538.148 292.694 544.359 299.229C550.57 305.606 557.926 308.794 566.425 308.794C574.924 308.794 582.361 305.606 588.736 299.229C595.11 292.694 598.298 285.281 598.298 276.992C598.298 268.862 595.11 261.609 588.736 255.233C582.525 248.857 575.088 245.669 566.425 245.669C557.762 245.669 550.325 248.857 544.114 255.233C538.066 261.609 535.043 268.862 535.043 276.992Z" fill="url(#paint7_linear)"/>
</g>
<path d="M340.843 330.622L340.842 330.623L316.816 347.599C308.612 353.36 301.632 359.686 295.88 366.577C290.101 373.502 287.183 380.705 287.183 388.179V411.372C287.183 413.309 288.096 414.959 289.827 416.31L289.839 416.32L289.853 416.329C291.561 417.495 293.374 418.089 295.283 418.089H382.565C384.372 418.089 385.898 417.286 387.124 415.749L387.132 415.739L387.139 415.729C388.343 414.052 388.949 412.197 388.949 410.177C388.949 408.156 388.342 406.371 387.124 404.844C385.898 403.307 384.372 402.504 382.565 402.504H304.855V388.179C304.855 383.384 306.835 378.552 310.869 373.673L310.874 373.666C314.924 368.61 319.951 364.102 325.96 360.142L325.96 360.142L325.971 360.134L345.83 346.266L345.83 346.266L345.839 346.26C353.039 340.993 359.668 335.805 365.725 330.696C371.822 325.554 376.927 319.289 381.041 311.907C385.166 304.504 387.233 296.769 387.233 288.709C387.233 275.503 382.521 264.452 373.102 255.588C363.846 246.722 352.113 242.299 337.943 242.299C324.765 242.299 313.695 246.077 304.766 253.656C295.829 261.242 291.351 270.866 291.351 282.492C291.351 285.808 291.97 288.386 293.29 290.144C294.629 291.93 296.632 292.795 299.206 292.795C301.894 292.795 304.065 292.14 305.653 290.769C307.377 289.419 308.287 287.772 308.287 285.839C308.287 276.856 310.949 270.074 316.209 265.411L316.21 265.41C321.659 260.565 328.725 258.124 337.453 258.124C347.806 258.124 355.748 261.275 361.353 267.523L361.358 267.528C367.161 273.816 370.052 281.03 370.052 289.187C370.052 296.704 367.244 304.09 361.578 311.354C355.89 318.486 348.979 324.909 340.843 330.622ZM478.74 340.495L478.745 340.499C484.811 345.637 487.885 353.446 487.885 364.029V368.572C487.885 380.452 484.961 389.27 479.202 395.121C473.445 400.97 464.769 403.938 453.08 403.938C441.05 403.938 432.382 401.163 426.958 395.719C421.638 390.215 419.01 384.278 419.01 377.897C419.01 375.556 418.276 373.72 416.739 372.486C415.223 371.268 413.007 370.702 410.174 370.702C407.348 370.702 405.214 371.346 403.929 372.769C402.637 374.04 402.074 376.375 402.074 379.571C402.074 389.78 406.567 398.993 415.474 407.197C424.421 415.438 437.062 419.524 453.325 419.524C468.779 419.524 481.245 415.434 490.674 407.207C500.301 398.95 505.066 386.032 505.066 368.572V364.029C505.066 354.313 502.966 346.162 498.734 339.607C494.676 333.321 488.679 328.537 480.775 325.245C486.465 322.273 491.026 317.496 494.464 310.944C498.274 303.996 500.163 295.3 500.163 284.883C500.163 270.769 496.4 260.095 488.788 252.955C481.183 245.822 469.821 242.299 454.796 242.299C445.595 242.299 437.601 243.661 430.827 246.401C424.071 249.133 419.002 252.685 415.663 257.079C412.37 261.254 409.972 265.363 408.479 269.407C406.99 273.441 406.242 277.405 406.242 281.296C406.242 284.817 406.808 287.379 408.086 288.803L408.097 288.816L408.109 288.827C409.557 290.24 411.927 290.882 415.078 290.882C417.767 290.882 419.876 290.227 421.311 288.827C422.748 287.426 423.423 285.362 423.423 282.731C423.423 276.167 425.742 270.39 430.4 265.377L430.405 265.371C435.005 260.266 442.921 257.646 454.306 257.646C464.531 257.646 471.887 260.179 476.495 265.138L476.501 265.144C481.114 269.953 483.472 277.532 483.472 287.991C483.472 299.254 480.948 307.048 476.038 311.53C471.1 315.878 463.56 318.097 453.325 318.097C451.188 318.097 449.498 318.705 448.353 320C447.219 321.283 446.695 323.157 446.695 325.532C446.695 327.834 447.243 329.654 448.427 330.898C449.615 332.146 451.362 332.727 453.57 332.727C464.445 332.727 472.812 335.338 478.74 340.495ZM535.426 246.509L535.422 246.513C526.836 255.209 522.529 265.376 522.529 276.992C522.529 288.611 526.92 298.857 535.668 307.711C544.418 316.567 554.677 321.01 566.425 321.01C578.172 321.01 588.432 316.567 597.182 307.711C606.092 298.859 610.566 288.613 610.566 276.992C610.566 265.057 606.177 254.807 597.421 246.267C588.668 237.73 578.328 233.452 566.425 233.452C554.519 233.452 544.178 237.812 535.426 246.509ZM588.378 255.582L588.382 255.587C594.674 261.88 597.798 269.01 597.798 276.992C597.798 285.136 594.672 292.426 588.38 298.878C582.094 305.165 574.782 308.294 566.425 308.294C558.068 308.294 550.841 305.166 544.719 298.882C538.59 292.431 535.543 285.14 535.543 276.992C535.543 269.002 538.509 261.87 544.475 255.579C550.595 249.298 557.903 246.169 566.425 246.169C574.949 246.169 582.258 249.299 588.378 255.582Z" stroke="#303234"/>
<defs>
<filter id="filter0_dd" x="0" y="0" width="788.795" height="770.885" filterUnits="userSpaceOnUse" color-interpolation-filters="sRGB">
<feFlood flood-opacity="0" result="BackgroundImageFix"/>
<feColorMatrix in="SourceAlpha" type="matrix" values="0 0 0 0 0 0 0 0 0 0 0 0 0 0 0 0 0 0 127 0"/>
<feOffset dx="-9" dy="-9"/>
<feGaussianBlur stdDeviation="8"/>
<feColorMatrix type="matrix" values="0 0 0 0 0.2875 0 0 0 0 0.2875 0 0 0 0 0.2875 0 0 0 0.4 0"/>
<feBlend mode="normal" in2="BackgroundImageFix" result="effect1_dropShadow"/>
<feColorMatrix in="SourceAlpha" type="matrix" values="0 0 0 0 0 0 0 0 0 0 0 0 0 0 0 0 0 0 127 0"/>
<feOffset dx="9" dy="9"/>
<feGaussianBlur stdDeviation="8"/>
<feColorMatrix type="matrix" values="0 0 0 0 0 0 0 0 0 0 0 0 0 0 0 0 0 0 0.4 0"/>
<feBlend mode="normal" in2="effect1_dropShadow" result="effect2_dropShadow"/>
<feBlend mode="normal" in="SourceGraphic" in2="effect2_dropShadow" result="shape"/>
</filter>
<filter id="filter1_i" x="290.728" y="526.454" width="228.186" height="88.5178" filterUnits="userSpaceOnUse" color-interpolation-filters="sRGB">
<feFlood flood-opacity="0" result="BackgroundImageFix"/>
<feBlend mode="normal" in="SourceGraphic" in2="BackgroundImageFix" result="shape"/>
<feColorMatrix in="SourceAlpha" type="matrix" values="0 0 0 0 0 0 0 0 0 0 0 0 0 0 0 0 0 0 127 0" result="hardAlpha"/>
<feOffset dx="2" dy="2"/>
<feGaussianBlur stdDeviation="2"/>
<feComposite in2="hardAlpha" operator="arithmetic" k2="-1" k3="1"/>
<feColorMatrix type="matrix" values="0 0 0 0 0 0 0 0 0 0 0 0 0 0 0 0 0 0 0.25 0"/>
<feBlend mode="normal" in2="shape" result="effect1_innerShadow"/>
</filter>
<filter id="filter2_i" x="544.888" y="497.127" width="157.729" height="153.252" filterUnits="userSpaceOnUse" color-interpolation-filters="sRGB">
<feFlood flood-opacity="0" result="BackgroundImageFix"/>
<feBlend mode="normal" in="SourceGraphic" in2="BackgroundImageFix" result="shape"/>
<feColorMatrix in="SourceAlpha" type="matrix" values="0 0 0 0 0 0 0 0 0 0 0 0 0 0 0 0 0 0 127 0" result="hardAlpha"/>
<feOffset dx="2" dy="2"/>
<feGaussianBlur stdDeviation="2"/>
<feComposite in2="hardAlpha" operator="arithmetic" k2="-1" k3="1"/>
<feColorMatrix type="matrix" values="0 0 0 0 0 0 0 0 0 0 0 0 0 0 0 0 0 0 0.3 0"/>
<feBlend mode="normal" in2="shape" result="effect1_innerShadow"/>
</filter>
<filter id="filter3_i" x="600.111" y="547.873" width="51.7605" height="50.268" filterUnits="userSpaceOnUse" color-interpolation-filters="sRGB">
<feFlood flood-opacity="0" result="BackgroundImageFix"/>
<feBlend mode="normal" in="SourceGraphic" in2="BackgroundImageFix" result="shape"/>
<feColorMatrix in="SourceAlpha" type="matrix" values="0 0 0 0 0 0 0 0 0 0 0 0 0 0 0 0 0 0 127 0" result="hardAlpha"/>
<feOffset dx="2" dy="2"/>
<feGaussianBlur stdDeviation="2"/>
<feComposite in2="hardAlpha" operator="arithmetic" k2="-1" k3="1"/>
<feColorMatrix type="matrix" values="0 0 0 0 0 0 0 0 0 0 0 0 0 0 0 0 0 0 0.25 0"/>
<feBlend mode="normal" in2="shape" result="effect1_innerShadow"/>
</filter>
<filter id="filter4_i" x="101.611" y="497.127" width="157.729" height="153.252" filterUnits="userSpaceOnUse" color-interpolation-filters="sRGB">
<feFlood flood-opacity="0" result="BackgroundImageFix"/>
<feBlend mode="normal" in="SourceGraphic" in2="BackgroundImageFix" result="shape"/>
<feColorMatrix in="SourceAlpha" type="matrix" values="0 0 0 0 0 0 0 0 0 0 0 0 0 0 0 0 0 0 127 0" result="hardAlpha"/>
<feOffset dx="2" dy="2"/>
<feGaussianBlur stdDeviation="2"/>
<feComposite in2="hardAlpha" operator="arithmetic" k2="-1" k3="1"/>
<feColorMatrix type="matrix" values="0 0 0 0 0 0 0 0 0 0 0 0 0 0 0 0 0 0 0.3 0"/>
<feBlend mode="normal" in2="shape" result="effect1_innerShadow"/>
</filter>
<filter id="filter5_i" x="156.834" y="565.783" width="51.7605" height="14.4476" filterUnits="userSpaceOnUse" color-interpolation-filters="sRGB">
<feFlood flood-opacity="0" result="BackgroundImageFix"/>
<feBlend mode="normal" in="SourceGraphic" in2="BackgroundImageFix" result="shape"/>
<feColorMatrix in="SourceAlpha" type="matrix" values="0 0 0 0 0 0 0 0 0 0 0 0 0 0 0 0 0 0 127 0" result="hardAlpha"/>
<feOffset dx="2" dy="2"/>
<feGaussianBlur stdDeviation="2"/>
<feComposite in2="hardAlpha" operator="arithmetic" k2="-1" k3="1"/>
<feColorMatrix type="matrix" values="0 0 0 0 0 0 0 0 0 0 0 0 0 0 0 0 0 0 0.25 0"/>
<feBlend mode="normal" in2="shape" result="effect1_innerShadow"/>
</filter>
<filter id="filter6_i" x="286.683" y="232.952" width="326.383" height="189.072" filterUnits="userSpaceOnUse" color-interpolation-filters="sRGB">
<feFlood flood-opacity="0" result="BackgroundImageFix"/>
<feBlend mode="normal" in="SourceGraphic" in2="BackgroundImageFix" result="shape"/>
<feColorMatrix in="SourceAlpha" type="matrix" values="0 0 0 0 0 0 0 0 0 0 0 0 0 0 0 0 0 0 127 0" result="hardAlpha"/>
<feOffset dx="2" dy="2"/>
<feGaussianBlur stdDeviation="2"/>
<feComposite in2="hardAlpha" operator="arithmetic" k2="-1" k3="1"/>
<feColorMatrix type="matrix" values="0 0 0 0 0 0 0 0 0 0 0 0 0 0 0 0 0 0 0.25 0"/>
<feBlend mode="normal" in2="shape" result="effect1_innerShadow"/>
</filter>
<linearGradient id="paint0_linear" x1="291.728" y1="611.972" x2="515.914" y2="611.972" gradientUnits="userSpaceOnUse">
<stop stop-color="#F18303"/>
<stop offset="1" stop-color="#F94409"/>
</linearGradient>
<radialGradient id="paint1_radial" cx="0" cy="0" r="1" gradientUnits="userSpaceOnUse" gradientTransform="translate(622.752 572.753) rotate(55.5628) scale(90.4833 69.8939)">
<stop stop-color="#2E3134"/>
<stop offset="1" stop-color="#292B2E"/>
</radialGradient>
<linearGradient id="paint2_linear" x1="601.111" y1="595.141" x2="648.871" y2="595.141" gradientUnits="userSpaceOnUse">
<stop stop-color="#F18303"/>
<stop offset="1" stop-color="#F94409"/>
</linearGradient>
<radialGradient id="paint3_radial" cx="0" cy="0" r="1" gradientUnits="userSpaceOnUse" gradientTransform="translate(179.475 572.753) rotate(55.5628) scale(90.4833 69.8939)">
<stop stop-color="#2E3134"/>
<stop offset="1" stop-color="#292B2E"/>
</radialGradient>
<linearGradient id="paint4_linear" x1="157.834" y1="577.231" x2="205.594" y2="577.231" gradientUnits="userSpaceOnUse">
<stop stop-color="#F18303"/>
<stop offset="1" stop-color="#F94409"/>
</linearGradient>
<linearGradient id="paint5_linear" x1="287.683" y1="419.024" x2="610.066" y2="419.024" gradientUnits="userSpaceOnUse">
<stop stop-color="#F18303"/>
<stop offset="1" stop-color="#F94409"/>
</linearGradient>
<linearGradient id="paint6_linear" x1="287.683" y1="419.024" x2="610.066" y2="419.024" gradientUnits="userSpaceOnUse">
<stop stop-color="#F18303"/>
<stop offset="1" stop-color="#F94409"/>
</linearGradient>
<linearGradient id="paint7_linear" x1="287.683" y1="419.024" x2="610.066" y2="419.024" gradientUnits="userSpaceOnUse">
<stop stop-color="#F18303"/>
<stop offset="1" stop-color="#F94409"/>
</linearGradient>
</defs>
</svg>
