<svg width="356" height="372" viewBox="0 0 356 372" fill="none" xmlns="http://www.w3.org/2000/svg">
<g style="mix-blend-mode:multiply" opacity="0.277134" filter="url(#filter0_f)">
<rect x="53.4347" y="69.1694" width="249.286" height="249.286" rx="69.3847" fill="black"/>
</g>
<g style="mix-blend-mode:multiply" opacity="0.304478" filter="url(#filter1_f)">
<rect x="53.4347" y="33.0229" width="249.286" height="249.286" rx="69.3847" fill="black"/>
</g>
<mask id="mask0" mask-type="alpha" maskUnits="userSpaceOnUse" x="53" y="23" width="250" height="250">
<rect x="53.4346" y="23.4673" width="249.286" height="249.286" rx="69.3847" fill="white"/>
</mask>
<g mask="url(#mask0)">
<g filter="url(#filter2_i)">
<rect x="53.4346" y="23.4673" width="249.286" height="249.286" rx="69.3847" fill="url(#paint0_linear)"/>
<rect x="53.4346" y="23.4673" width="249.286" height="249.286" rx="69.3847" fill="url(#paint1_linear)" fill-opacity="0.6" style="mix-blend-mode:multiply"/>
</g>
<rect x="53.403" y="23.583" width="249.286" height="249.286" rx="69.3847" fill="url(#paint2_linear)" fill-opacity="0.9"/>
<g style="mix-blend-mode:screen" filter="url(#filter3_f)">
<path fill-rule="evenodd" clip-rule="evenodd" d="M122.819 19.3125C84.4992 19.3125 53.4347 50.3771 53.4347 88.6972V199.214C53.4347 199.236 53.4347 199.259 53.4347 199.281V101.162C53.4347 62.8415 84.4993 31.777 122.819 31.777H233.336C271.634 31.777 302.685 62.806 302.721 101.096V88.6972C302.721 50.3771 271.656 19.3125 233.336 19.3125H122.819Z" fill="white"/>
</g>
<g filter="url(#filter4_f)">
<rect x="62.9906" y="33.0229" width="230.174" height="230.174" rx="62.3215" fill="url(#paint3_linear)"/>
</g>
</g>
<path d="M236.968 180.101C237.895 178.246 236.736 176.623 235.345 176.392C219.115 173.841 211.928 157.148 211.464 156.452C210.537 154.598 210.537 153.207 211.001 152.047C211.928 149.961 215.406 148.801 217.492 148.106C218.188 147.874 218.883 147.642 219.347 147.41C223.289 145.787 225.375 143.932 225.375 141.614C225.143 139.991 223.984 138.368 221.666 137.441C220.275 136.977 218.42 136.977 217.029 137.441C214.942 138.368 213.319 138.832 211.696 139.064C210.769 138.832 210.073 138.6 209.841 138.368C210.305 130.021 211.464 118.197 208.45 111.473C202.886 98.9534 191.293 92.6934 179.005 92.6934C178.773 92.6934 176.918 92.6934 176.687 92.6934C171.818 92.6934 155.356 94.0845 147.473 111.705C144.459 118.197 145.619 130.253 146.082 138.368C145.619 138.6 144.923 139.064 143.764 139.064C142.141 139.064 140.518 138.6 138.431 137.441C135.649 136.281 131.244 138.136 130.78 141.15C130.316 142.773 131.244 145.324 136.576 147.41C138.663 148.338 143.764 149.265 144.923 152.047C145.387 153.207 145.387 154.598 144.459 156.452C143.996 157.148 136.808 173.841 120.579 176.392C119.419 176.623 118.492 177.783 118.492 178.942H118.724C118.956 183.811 129.621 185.666 134.49 186.593C134.953 187.057 135.417 189.839 136.113 192.157C136.345 193.085 137.04 194.244 138.895 194.244C140.75 194.244 143.532 193.085 147.937 193.085C153.965 193.085 156.052 194.476 160.921 197.954C164.399 200.272 170.427 204.677 177.846 204.214C185.033 204.446 189.902 201.432 195.003 197.954C199.872 194.476 201.958 193.085 207.986 193.085C212.624 193.085 214.942 194.012 217.029 194.012C218.652 194.012 219.579 193.317 219.811 191.926C220.506 189.839 220.97 187.057 221.434 186.361C230.708 184.97 235.809 182.883 236.968 180.101Z" fill="url(#paint4_linear)"/>
<defs>
<filter id="filter0_f" x="0.353672" y="16.0884" width="355.448" height="355.448" filterUnits="userSpaceOnUse" color-interpolation-filters="sRGB">
<feFlood flood-opacity="0" result="BackgroundImageFix"/>
<feBlend mode="normal" in="SourceGraphic" in2="BackgroundImageFix" result="shape"/>
<feGaussianBlur stdDeviation="26.5405" result="effect1_foregroundBlur"/>
</filter>
<filter id="filter1_f" x="20.6825" y="0.270832" width="314.79" height="314.79" filterUnits="userSpaceOnUse" color-interpolation-filters="sRGB">
<feFlood flood-opacity="0" result="BackgroundImageFix"/>
<feBlend mode="normal" in="SourceGraphic" in2="BackgroundImageFix" result="shape"/>
<feGaussianBlur stdDeviation="16.3761" result="effect1_foregroundBlur"/>
</filter>
<filter id="filter2_i" x="53.4346" y="17.2351" width="249.286" height="255.518" filterUnits="userSpaceOnUse" color-interpolation-filters="sRGB">
<feFlood flood-opacity="0" result="BackgroundImageFix"/>
<feBlend mode="normal" in="SourceGraphic" in2="BackgroundImageFix" result="shape"/>
<feColorMatrix in="SourceAlpha" type="matrix" values="0 0 0 0 0 0 0 0 0 0 0 0 0 0 0 0 0 0 127 0" result="hardAlpha"/>
<feOffset dy="-7.41923"/>
<feGaussianBlur stdDeviation="3.11608"/>
<feComposite in2="hardAlpha" operator="arithmetic" k2="-1" k3="1"/>
<feColorMatrix type="matrix" values="0 0 0 0 0 0 0 0 0 0 0 0 0 0 0 0 0 0 0.0920291 0"/>
<feBlend mode="normal" in2="shape" result="effect1_innerShadow"/>
</filter>
<filter id="filter3_f" x="31.9764" y="-2.14579" width="292.203" height="222.886" filterUnits="userSpaceOnUse" color-interpolation-filters="sRGB">
<feFlood flood-opacity="0" result="BackgroundImageFix"/>
<feBlend mode="normal" in="SourceGraphic" in2="BackgroundImageFix" result="shape"/>
<feGaussianBlur stdDeviation="10.7291" result="effect1_foregroundBlur"/>
</filter>
<filter id="filter4_f" x="50.2236" y="20.256" width="255.708" height="255.708" filterUnits="userSpaceOnUse" color-interpolation-filters="sRGB">
<feFlood flood-opacity="0" result="BackgroundImageFix"/>
<feBlend mode="normal" in="SourceGraphic" in2="BackgroundImageFix" result="shape"/>
<feGaussianBlur stdDeviation="6.38347" result="effect1_foregroundBlur"/>
</filter>
<linearGradient id="paint0_linear" x1="53.433" y1="23.4673" x2="53.433" y2="272.757" gradientUnits="userSpaceOnUse">
<stop stop-color="#F1F1F1"/>
<stop offset="1" stop-color="#C3C3C3"/>
</linearGradient>
<linearGradient id="paint1_linear" x1="68.7712" y1="54.1405" x2="68.7712" y2="272.753" gradientUnits="userSpaceOnUse">
<stop stop-opacity="0.01"/>
<stop offset="1" stop-opacity="0.5"/>
</linearGradient>
<linearGradient id="paint2_linear" x1="89.1649" y1="23.583" x2="89.1649" y2="201.345" gradientUnits="userSpaceOnUse">
<stop stop-color="white" stop-opacity="0.463778"/>
<stop offset="1" stop-color="white" stop-opacity="0.01"/>
</linearGradient>
<linearGradient id="paint3_linear" x1="62.9891" y1="33.0229" x2="62.9891" y2="263.2" gradientUnits="userSpaceOnUse">
<stop stop-color="#E3E3E3"/>
<stop offset="1" stop-color="#DEDEDE"/>
</linearGradient>
<linearGradient id="paint4_linear" x1="103.843" y1="45.6282" x2="103.843" y2="216.369" gradientUnits="userSpaceOnUse">
<stop stop-color="#FFFC00"/>
<stop offset="1" stop-color="#FF9000"/>
</linearGradient>
</defs>
</svg>
