<svg width="1548" height="539" viewBox="0 0 1548 539" fill="none" xmlns="http://www.w3.org/2000/svg">
<path d="M479.422 446.968C522.145 445.047 548.157 433.569 575.798 421.728L559.585 439.325C595.109 439.325 620.131 450.146 635.02 461.898C657.46 479.611 672.214 498.839 703.924 514.598C765.092 544.997 860.817 542.062 946.892 532.106C1206.99 502.018 1555.01 436.488 1547.89 310.018C1545.31 264.169 1471.8 230.924 1356.27 226.924C1249.38 223.223 1141.24 233.692 1035.61 238.477C946.968 242.492 880.802 260.961 789.605 226.924C733.873 158.982 875.736 137.164 789.605 49.005C561.612 -30.9785 575.798 -4.98426 293.087 69.0005C174.53 120.99 174.53 47.0051 39.7614 137.164C-56.5021 310.018 45.3232 344.542 100.56 388.935C140.674 421.175 285.58 423.713 372.012 437.636C401.324 442.358 446.98 448.426 479.422 446.968Z" fill="#FFD369"/>
</svg>
